<?xml version="1.0" encoding="UTF-8" standalone="no"?>
<svg width="128px" height="128px" viewBox="0 0 128 128" version="1.1" xmlns="http://www.w3.org/2000/svg" xmlns:xlink="http://www.w3.org/1999/xlink" xmlns:sketch="http://www.bohemiancoding.com/sketch/ns">
    <!-- Generator: Sketch 3.2.2 (9983) - http://www.bohemiancoding.com/sketch -->
    <title>angel</title>
    <desc>Created with Sketch.</desc>
    <defs></defs>
    <g id="Page-1" stroke="none" stroke-width="1" fill="none" fill-rule="evenodd" sketch:type="MSPage">
        <g id="angel" sketch:type="MSArtboardGroup" stroke="#000000" fill="#000000">
            <path d="M81.5322837,56.6889128 C84.5537885,57.1470067 86.645524,58.5212886 87.8077356,60.3534228 C88.9697019,62.185557 89.6670288,65.3917315 89.6670288,69.5143356 C89.6670288,77.7590604 87.1104087,84.629745 81.9971683,89.8971007 C76.8839279,95.164698 70.3762788,97.9130201 62.4742212,97.9130201 C59.4527163,97.9130201 56.4312115,97.4549262 53.4099519,96.3099329 C50.3884471,95.164698 48.0642692,93.5616107 45.9725337,91.7294765 C43.6483558,89.6682953 41.7890625,87.1490201 40.626851,84.8587919 C39.6973269,82.3395168 39,79.8202416 39,77.3009664 C39,74.5526443 39.6973269,72.2624161 40.8592933,70.6593289 C42.0215048,69.0562416 44.1132404,68.1400537 46.6698606,67.4529128 C46.204976,66.3079195 45.7400913,65.3917315 45.507649,64.4757852 C45.2752067,63.7886443 45.0427644,63.1015034 45.0427644,62.643651 C45.0427644,61.2693691 45.7400913,59.6662819 47.3669423,58.0631946 C48.9940385,56.4598658 50.3884471,55.7729664 51.783101,55.7729664 C52.4801827,55.7729664 52.9450673,55.7729664 53.6423942,56.0020134 C54.339476,56.2308188 55.0368029,56.4598658 55.9665721,57.1470067 C53.8748365,50.2763221 51.783101,44.5508725 50.6208894,40.6573154 C49.4589231,36.764 48.9940385,34.2447248 48.9940385,32.6416376 C48.9940385,30.5804564 49.4589231,28.9773691 50.6208894,27.8321342 C51.5506587,26.6871409 53.1775096,26 55.0368029,26 C58.0583077,26 62.0093365,32.8706846 66.8901346,46.8411007 C67.8196587,49.1313289 68.2845433,50.9634631 68.7494279,52.3375034 C69.2143125,51.421557 69.6791971,49.8182282 70.3762788,47.986094 C75.2570769,34.2447248 79.4405481,27.3740403 82.6944952,27.3740403 C84.3213462,27.3740403 85.716,27.8321342 86.8779663,28.9773691 C87.8077356,30.1223624 88.5048173,31.7254497 88.5048173,33.5578255 C88.5048173,34.9318658 88.0401779,37.6801879 86.8779663,41.5735034 C85.4835577,45.4668188 83.8564615,50.5053691 81.5322837,56.6889128 L81.5322837,56.6889128 Z M45.7400913,76.8428725 C46.204976,77.3009664 46.9023029,78.2171544 47.5993846,79.3621477 C49.6911202,82.3395168 51.783101,83.942604 53.6423942,83.942604 C54.339476,83.942604 54.8043606,83.713557 55.2692452,83.2557047 C55.7341298,82.7976107 55.9665721,82.3395168 55.9665721,82.1104698 C55.9665721,81.6523758 55.7341298,80.7364295 55.0368029,79.5911946 C54.339476,78.4462013 53.4099519,77.0719195 52.2477404,75.6978792 C50.8533317,74.0947919 49.6911202,72.7205101 48.9940385,72.0333691 C48.0642692,71.3464698 47.3669423,70.8883758 46.9023029,70.8883758 C45.7400913,70.8883758 44.578125,71.5755168 43.6483558,72.7205101 C42.7185865,73.865745 42.2539471,75.4688322 42.2539471,77.0719195 C42.2539471,78.4462013 42.4863894,79.8202416 43.1834712,81.6523758 C43.8807981,83.2557047 44.8105673,85.0878389 46.204976,86.6909262 C48.2967115,88.9811544 50.6208894,91.0423356 53.6423942,92.4163758 C56.6636538,93.7906577 59.6851587,94.477557 63.4037452,94.477557 C69.9116394,94.477557 75.2570769,92.1873289 79.6729904,87.3780671 C84.0889038,82.5685638 86.1806394,76.6138255 86.1806394,69.2852886 C86.1806394,66.9950604 85.9484423,65.3917315 85.716,64.0176913 C85.4835577,62.643651 84.7862308,61.7274631 84.0889038,61.2693691 C82.6944952,60.1243758 80.137875,59.2081879 76.1868462,58.2922416 C72.2358173,57.3760537 68.052101,56.9179597 63.8686298,56.9179597 C62.7066635,56.9179597 61.7768942,57.1470067 61.3120096,57.6051007 C60.8473702,58.0631946 60.6149279,58.750094 60.6149279,59.6662819 C60.6149279,61.9565101 61.7768942,63.5595973 64.3335144,64.4757852 C66.8901346,65.3917315 71.0736058,66.0788725 76.6517308,66.0788725 L78.7434663,66.0788725 C79.2081058,66.0788725 79.6729904,66.3079195 79.9054327,66.5369664 C80.137875,66.9950604 80.3703173,67.4529128 80.3703173,68.1400537 C79.9054327,68.5981477 78.7434663,69.2852886 76.8839279,69.9721879 C75.0246346,70.6593289 73.8626683,71.3464698 72.932899,72.0333691 C70.8411635,73.407651 69.2143125,75.2397852 68.052101,77.3009664 C66.8901346,79.3621477 66.1928077,81.1942819 66.1928077,83.0266577 C66.1928077,84.171651 66.42525,85.3168859 66.8901346,86.9199732 C67.3550192,88.5230604 67.5874615,89.4392483 67.5874615,89.6682953 L67.5874615,90.5842416 C66.1928077,90.5842416 65.0308413,89.6682953 64.1010721,88.0649664 C63.1715481,86.4618792 62.9391058,84.400698 62.9391058,81.6523758 L62.9391058,81.1942819 C62.7066635,81.4233289 62.4742212,81.6523758 62.2417788,81.6523758 C62.0093365,81.6523758 61.7768942,81.8814228 61.3120096,81.8814228 L60.3824856,81.8814228 C60.1500433,81.8814228 59.917601,81.6523758 59.4527163,81.6523758 C59.4527163,82.1104698 59.6851587,82.3395168 59.6851587,82.7976107 L59.6851587,83.713557 C59.6851587,84.8587919 59.220274,86.0037852 58.29075,86.9199732 C57.3609808,87.8359195 56.1990144,88.2940134 54.8043606,88.2940134 C52.712625,88.2940134 50.6208894,87.3780671 48.2967115,85.3168859 C46.204976,83.2557047 45.0427644,81.4233289 45.0427644,79.3621477 C45.0427644,78.9040537 45.0427644,78.6752483 45.2752067,78.4462013 C45.2752067,77.3009664 45.507649,77.0719195 45.7400913,76.8428725 L45.7400913,76.8428725 Z M60.8473702,77.9881074 C61.3120096,77.9881074 62.0093365,77.7590604 62.4742212,77.3009664 C62.9391058,76.8428725 63.1715481,76.1559732 63.1715481,75.6978792 C63.1715481,75.0107383 62.7066635,73.636698 61.7768942,71.3464698 C60.8473702,69.0562416 59.6851587,66.7660134 58.29075,64.7048322 C57.3609808,63.1015034 56.1990144,61.7274631 55.2692452,61.0403221 C54.339476,60.1243758 53.4099519,59.8953289 52.4801827,59.8953289 C51.7828558,59.8953289 51.085774,60.3534228 50.1560048,61.2693691 C49.2264808,62.185557 48.9940385,62.872698 48.9940385,63.7886443 C48.9940385,64.4757852 49.4589231,65.8498255 50.1560048,67.4529128 C51.085774,69.0562416 52.0152981,70.6593289 53.4099519,72.4914631 C54.8043606,74.3235973 56.1990144,75.9269262 57.5934231,77.0719195 C58.9878317,77.5300134 59.917601,77.9881074 60.8473702,77.9881074 L60.8473702,77.9881074 Z M65.7279231,54.1696376 L60.1500433,38.8251812 C58.7553894,34.9318658 57.8258654,32.1835436 56.8960962,31.0385503 C56.1990144,29.8933154 55.5016875,29.2061745 54.5719183,29.2061745 C53.8748365,29.2061745 53.4099519,29.4352215 52.9450673,29.8933154 C52.2477404,30.5804564 52.0155433,31.2675973 52.0155433,32.1835436 C52.0155433,33.7868725 52.712625,36.305906 53.8748365,39.9704161 C55.0368029,43.6346846 56.8960962,48.6732349 59.220274,54.6277315 C59.4527163,54.1696376 59.6851587,53.9405906 60.1500433,53.9405906 C60.6149279,53.7117852 61.0795673,53.7117852 61.5444519,53.7117852 L62.7066635,53.7117852 C63.4037452,53.9405906 64.3335144,53.9405906 65.7279231,54.1696376 L65.7279231,54.1696376 Z M71.3060481,69.0562416 C69.9116394,69.0562416 68.5169856,68.8271946 67.1225769,68.5981477 C65.7279231,68.3691007 64.5659567,68.1400537 63.4037452,67.6819597 C63.8686298,68.8271946 64.3335144,69.7433826 64.798399,70.8883758 C65.2632837,72.0333691 65.4954808,72.949557 65.7279231,74.0947919 C66.42525,73.178604 67.3550192,72.2624161 68.2845433,71.3464698 C69.4467548,70.4302819 70.3762788,69.7433826 71.3060481,69.0562416 L71.3060481,69.0562416 Z M78.0461394,55.7729664 C80.3703173,49.8182282 81.9971683,44.7799195 83.3918221,40.8863624 C84.5537885,36.993047 85.2511154,34.7028188 85.2511154,33.7868725 C85.2511154,32.8706846 85.0186731,32.1835436 84.5537885,31.4964027 C84.0889038,31.0385503 83.6242644,30.8095034 82.9269375,30.8095034 C81.9971683,30.8095034 81.0676442,31.4964027 80.137875,33.0997315 C79.2081058,34.7028188 78.0461394,36.993047 76.8839279,40.4285101 L71.7709327,54.6277315 L78.0461394,55.7729664 L78.0461394,55.7729664 Z" id="Imported-Layers" sketch:type="MSShapeGroup"></path>
        </g>
    </g>
</svg>